<?xml version="1.0" encoding="utf-8"?>
<!-- Generator: Adobe Illustrator 22.1.0, SVG Export Plug-In . SVG Version: 6.00 Build 0)  -->
<svg version="1.1"
	 id="svg18" inkscape:version="0.92.4 (5da689c313, 2019-01-14)" sodipodi:docname="РёРіСЂРѕРІС‹Рµ СЃРµСЂРІРёСЃС‹_6.svg" xmlns:cc="http://creativecommons.org/ns#" xmlns:dc="http://purl.org/dc/elements/1.1/" xmlns:inkscape="http://www.inkscape.org/namespaces/inkscape" xmlns:rdf="http://www.w3.org/1999/02/22-rdf-syntax-ns#" xmlns:sodipodi="http://sodipodi.sourceforge.net/DTD/sodipodi-0.dtd" xmlns:svg="http://www.w3.org/2000/svg"
	 xmlns="http://www.w3.org/2000/svg" xmlns:xlink="http://www.w3.org/1999/xlink" x="0px" y="0px" viewBox="0 0 297.6 297.7"
	 style="enable-background:new 0 0 297.6 297.7;" xml:space="preserve">
<style type="text/css">
	.st0{fill:url(#ellipse12_1_);}
	.st1{fill:#FFFFFF;}
</style>
<sodipodi:namedview  bordercolor="#666666" borderopacity="1" fit-margin-bottom="0" fit-margin-left="0" fit-margin-right="0" fit-margin-top="0" gridtolerance="10" guidetolerance="10" id="namedview20" inkscape:current-layer="svg18" inkscape:cx="198.61751" inkscape:cy="198.41766" inkscape:pageopacity="0" inkscape:pageshadow="2" inkscape:window-height="636" inkscape:window-maximized="0" inkscape:window-width="1028" inkscape:window-x="0" inkscape:window-y="0" inkscape:zoom="0.59470518" objecttolerance="10" pagecolor="#ffffff" showgrid="false">
	</sodipodi:namedview>
<g id="Слой_x0020_1" transform="translate(-93.35843,1)">
	<g id="_771156272">
		
			<linearGradient id="ellipse12_1_" gradientUnits="userSpaceOnUse" x1="5243.8296" y1="-5879.3716" x2="2159.5898" y2="-739.3309" gradientTransform="matrix(4.966235e-02 0 0 -4.966235e-02 58.3112 -16.5121)">
			<stop  offset="0" style="stop-color:#0076BA"/>
			<stop  offset="1" style="stop-color:#0DAFE0"/>
		</linearGradient>
		<ellipse id="ellipse12" class="st0" cx="242.1" cy="147.8" rx="148.8" ry="148.8"/>
	</g>
</g>
<g id="surface1">
	<path class="st1" d="M127.6,79.8v129.2l27.8,8.5V109.8c0-2.8,0.4-4.9,1.4-6.3c1.1-1.8,2.1-1.8,3.9-1.1c3.9,1.1,6,4.9,6,10.9v43.3
		c9.2,4.2,17.3,4.6,23.2,0.4c6.3-4.2,9.5-12,9.5-23.2c0-12-2.1-21.1-7.4-27.1c-4.9-6.3-13-11.6-25.7-15.8
		C151.2,85.5,138.2,81.9,127.6,79.8z M119.2,158l-5.6,1.8L79,172.1l-6,2.5c-9.2,3.9-13.7,7.7-13.7,11.6c0.4,5.3,6.3,9.2,17.3,12
		c14.1,3.9,28.2,4.6,42.6,2.5v-14.8l-5.6,1.4l-6.3,2.5l-1.8,0.7l-1.3,0.4l-0.5,0.2l-0.3,0.1l-0.4,0.1l-0.6,0.1l-1.4,0.2l-1.2,0.2
		l-1.2,0.2l-0.9,0.1l-0.8,0.1h-1.1l-1,0l-0.9,0l-0.9-0.1l-0.8-0.1l-0.9-0.2l-0.8-0.2l-1-0.3l-0.9-0.3l-0.9-0.4
		c-1.4-1.1-2.1-2.5-0.7-3.5c1.1-0.7,2.8-1.8,4.9-2.5l6.3-2.1l21.1-7.4C119.2,174.9,119.2,158,119.2,158z M199.1,164.7
		c-2.5,0-5.3,0-7.7,0.4c-9.2,0.4-18.7,1.8-28.5,4.9v17.3l19.7-6.7l10.2-3.5c0,0,3.9-1.1,6.7-1.8c1.4-0.4,2.8-0.4,3.9-0.4
		c1.4,0,2.5,0.4,3.5,0.4c0.7,0.4,1.4,0.4,1.4,0.4c2.5,0.4,3.9,1.4,4.2,2.5c0.4,1.4-1.4,2.5-4.9,3.9l-8.8,3.5l-35.9,12.3v16.9l16.9-6
		l40.1-14.4l4.9-2.1c9.5-3.5,13.7-7.4,13.4-12c-0.4-4.6-5.6-8.1-15.1-11.3C215,166.5,206.9,165,199.1,164.7z"/>
</g>
</svg>
