<?xml version="1.0" encoding="UTF-8" standalone="no"?>
<!-- Creator: CorelDRAW -->

<svg
   xmlns:dc="http://purl.org/dc/elements/1.1/"
   xmlns:cc="http://creativecommons.org/ns#"
   xmlns:rdf="http://www.w3.org/1999/02/22-rdf-syntax-ns#"
   xmlns:svg="http://www.w3.org/2000/svg"
   xmlns="http://www.w3.org/2000/svg"
   xmlns:sodipodi="http://sodipodi.sourceforge.net/DTD/sodipodi-0.dtd"
   xmlns:inkscape="http://www.inkscape.org/namespaces/inkscape"
   xml:space="preserve"
   width="104.996mm"
   height="104.996mm"
   version="1.1"
   style="clip-rule:evenodd;fill-rule:evenodd;image-rendering:optimizeQuality;shape-rendering:geometricPrecision;text-rendering:geometricPrecision"
   viewBox="0 0 645.24685 666"
   id="svg18"
   sodipodi:docname="игровые сервисы_2.svg"
   inkscape:version="0.92.4 (5da689c313, 2019-01-14)"><metadata
   id="metadata22"><rdf:RDF><cc:Work
       rdf:about=""><dc:format>image/svg+xml</dc:format><dc:type
         rdf:resource="http://purl.org/dc/dcmitype/StillImage" /><dc:title></dc:title></cc:Work></rdf:RDF></metadata><sodipodi:namedview
   pagecolor="#ffffff"
   bordercolor="#666666"
   borderopacity="1"
   objecttolerance="10"
   gridtolerance="10"
   guidetolerance="10"
   inkscape:pageopacity="0"
   inkscape:pageshadow="2"
   inkscape:window-width="721"
   inkscape:window-height="480"
   id="namedview20"
   showgrid="false"
   fit-margin-top="0"
   fit-margin-left="0"
   fit-margin-right="0"
   fit-margin-bottom="0"
   inkscape:zoom="0.29735259"
   inkscape:cx="86.244882"
   inkscape:cy="242.1899"
   inkscape:window-x="0"
   inkscape:window-y="0"
   inkscape:window-maximized="0"
   inkscape:current-layer="svg18" />
 <defs
   id="defs9">
  <style
   type="text/css"
   id="style2">
   <![CDATA[
    .fil1 {fill:#FEFEFE}
    .fil0 {fill:url(#id0)}
   ]]>
  </style>
  <linearGradient
   id="id0"
   gradientUnits="userSpaceOnUse"
   x1="332.76901"
   y1="665.53802"
   x2="332.76901"
   y2="0">
   <stop
   offset="0"
   style="stop-opacity:1; stop-color:#3E9BC3"
   id="stop4" />
   <stop
   offset="1"
   style="stop-opacity:1; stop-color:#0F1C30"
   id="stop6" />
  </linearGradient>
 </defs>
 <g
   id="Слой_x0020_1"
   transform="translate(-10.376575)">
  <metadata
   id="CorelCorpID_0Corel-Layer" />
  <g
   id="_771157264">
   <circle
   class="fil0"
   cx="333"
   cy="333"
   r="333"
   id="circle12"
   style="fill:url(#id0)" />
   <path
   class="fil1"
   d="M 10,415 C 4,389 0,361 0,333 c 0,-23 2,-46 7,-68 2,7 3,14 4,20 l 149,90 c 16,-10 33,-14 51,-14 h 1 l 82,-116 c 0,-17 4,-34 11,-49 7,-15 16,-29 27,-40 11,-11 24,-20 40,-26 15,-7 31,-10 48,-10 18,0 35,3 50,10 15,7 29,16 40,28 12,11 21,25 28,40 6,15 10,32 10,49 0,18 -4,35 -10,50 -7,15 -16,29 -28,40 -11,12 -25,21 -40,27 -15,7 -32,10 -50,10 v 0 0 l -111,86 c 0,13 -3,26 -8,38 -5,12 -12,22 -21,31 -9,9 -20,16 -31,21 -12,5 -25,8 -38,8 -26,0 -48,-8 -66,-24 -18,-16 -29,-37 -32,-61 z m 201,-29 c 20,0 37,7 51,22 13,14 20,31 20,51 0,20 -7,37 -20,51 -14,14 -31,21 -51,21 -18,0 -34,-6 -47,-17 -13,-11 -21,-25 -24,-42 l 44,25 c 7,5 16,8 27,8 13,0 24,-4 32,-13 9,-9 14,-20 14,-33 0,-10 -3,-19 -8,-27 -6,-7 -12,-13 -21,-16 l -43,-24 c 8,-4 16,-6 26,-6 z M 420,191 c 16,0 29,5 40,17 11,11 17,24 17,39 0,16 -6,29 -17,40 -11,11 -24,16 -40,16 -15,0 -28,-5 -39,-16 -11,-11 -16,-24 -16,-40 0,-15 5,-28 16,-39 11,-12 24,-17 39,-17 z m 0,142 c 25,0 45,-8 62,-24 17,-17 25,-37 25,-62 0,-24 -8,-44 -25,-61 -17,-17 -37,-25 -62,-25 -11,0 -22,2 -33,6 -10,5 -19,11 -27,19 -8,8 -14,17 -19,28 -4,10 -6,22 -6,33 0,12 2,23 6,34 5,11 11,20 19,28 8,7 17,13 27,18 11,4 22,6 33,6 z"
   id="path14"
   inkscape:connector-curvature="0"
   style="fill:#fefefe" />
  </g>
 </g>
</svg>