<svg aria-hidden="true" style="position: absolute; width: 0; height: 0; overflow: hidden;" version="1.1" xmlns="http://www.w3.org/2000/svg" xmlns:xlink="http://www.w3.org/1999/xlink">
<defs>
<symbol id="icon-blizzard" viewBox="0 0 32 32">
<path fill="#0195e4" style="fill: var(--color1, #0195e4)" d="M32 16c0 8.837-7.163 16-16 16s-16-7.163-16-16c0-8.837 7.163-16 16-16s16 7.163 16 16z"></path>
<path fill="#fefefe" style="fill: var(--color2, #fefefe)" d="M24.205 14.652c0 0 1.817 0.117 1.817-0.938 0-1.407-2.403-2.637-2.403-2.637s0.41-0.762 0.645-1.231c0.234-0.469 0.879-2.168 0.938-2.579 0.059-0.469-0.059-0.645-0.059-0.645-0.176 1.055-1.875 4.161-2.051 4.22-1.7-0.762-3.985-0.996-3.985-0.996s-2.286-4.806-4.454-4.806c-2.11 0-2.11 4.103-2.11 4.103s-0.586-1.172-1.348-1.172c-1.114 0-1.465 1.7-1.465 3.516-2.168 0-3.985 0.469-4.161 0.527s-0.703 0.41-0.469 0.352c0.469-0.176 2.755-0.469 4.689-0.352 0.117 1.758 1.114 3.985 1.114 3.985s-2.168 3.106-2.168 5.333c0 0.586 0.293 1.641 1.817 1.641 1.289 0 2.755-0.762 2.989-0.938-0.234 0.352-0.41 0.996-0.41 1.289s0.176 0.938 1.172 0.938c1.289 0 2.696-0.938 2.696-0.938s1.348 2.227 2.52 3.223c0.293 0.293 0.586 0.352 0.586 0.352s-1.114-1.114-2.637-3.927c1.407-0.879 2.872-2.93 2.872-2.93s0.176 0 1.524 0c2.051 0 5.040-0.469 5.040-2.11 0-1.7-2.696-3.282-2.696-3.282zM24.44 13.656c0 0.586-0.586 0.586-0.586 0.586l-0.41 0.059c0 0-0.82-0.469-1.348-0.645 0 0 0.762-1.231 0.996-1.582 0.117 0.117 1.348 0.879 1.348 1.582zM15.707 7.443c0.996 0 2.403 2.344 2.403 2.344s-2.227-0.176-3.985 0.879c0.059-1.7 0.586-3.223 1.582-3.223zM11.839 9.319c0.293 0 0.586 0.41 0.703 0.703 0 0.234 0.117 1.465 0.117 1.465l-1.817-0.059c0-1.641 0.645-2.11 0.996-2.11zM11.604 20.63c-0.938 0-1.172-0.527-1.172-1.055 0-1.114 0.879-2.637 0.879-2.637s0.996 2.051 2.755 2.989c-0.82 0.469-1.582 0.703-2.462 0.703zM14.828 22.857c-0.703 0-0.762-0.469-0.762-0.586 0-0.293 0.234-0.703 0.234-0.703s1.172-0.762 1.231-0.82l0.879 1.582c0 0-0.879 0.527-1.582 0.527zM16.996 21.978c-0.41-0.762-0.762-1.524-0.762-1.524s1.758 0.117 2.696-0.82c-0.586 0.234-1.524 0.586-2.579 0.469 2.227-1.993 3.516-3.399 4.63-4.864-0.059-0.117-0.586-0.469-0.703-0.527-0.645 0.762-3.282 3.575-5.685 4.923-3.048-1.641-3.692-6.505-3.751-7.56l1.7 0.176c0 0-0.645 1.114-0.645 1.934s0.117 0.82 0.117 0.82c0 0-0.059-1.407 0.821-2.52 0.703 3.575 1.348 5.392 1.934 6.506 0.234-0.117 0.762-0.352 0.762-0.352s-1.524-4.454-1.465-7.443c0.703-0.352 1.758-0.762 2.93-0.762 3.048 0 5.509 1.348 5.509 1.348l-0.938 1.348c0 0-0.879-1.582-2.11-1.817 0.645 0.469 1.407 1.055 1.758 1.993-2.52-0.996-5.626-1.524-6.623-1.641-0.059 0.352-0.059 0.879-0.059 0.879s4.103 0.762 7.092 2.462c0 3.751-4.103 6.623-4.63 6.974zM20.864 19.165c0 0 1.289-1.641 1.289-3.868 0 0 2.051 1.289 2.051 2.52 0 1.407-3.341 1.348-3.341 1.348z"></path>
</symbol>
<symbol id="icon-microsoft" viewBox="0 0 32 32">
<path fill="#ffcf47" style="fill: var(--color3, #ffcf47)" d="M32.111 31.37v-14.632h-16.037v12.65z"></path>
<path fill="#48c0eb" style="fill: var(--color4, #48c0eb)" d="M14.524 29.171v-12.433h-14.524v10.631z"></path>
<path fill="#fe6d4b" style="fill: var(--color5, #fe6d4b)" d="M0 15.224h14.524v-12.433l-14.524 1.802z"></path>
<path fill="#9fd661" style="fill: var(--color6, #9fd661)" d="M16.073 15.224h16.037v-14.632l-16.037 2.018z"></path>
</symbol>
<symbol id="icon-nintendo" viewBox="0 0 32 32">
<path fill="#c62c32" style="fill: var(--color7, #c62c32)" d="M32 16c0 8.837-7.163 16-16 16s-16-7.163-16-16c0-8.837 7.163-16 16-16s16 7.163 16 16z"></path>
<path fill="#fefefe" style="fill: var(--color2, #fefefe)" d="M18.020 7.548h3.641c0.877 0 1.674 0.372 2.259 0.93 0.558 0.585 0.93 1.382 0.93 2.259v10.525c0 0.877-0.372 1.674-0.93 2.233-0.585 0.585-1.382 0.93-2.259 0.93h-4.173v-16.877zM10.312 7.548h5.369v16.877h-5.369c-0.851 0-1.648-0.346-2.233-0.93-0.585-0.558-0.93-1.355-0.93-2.233v-10.525c0-0.877 0.346-1.674 0.93-2.259 0.585-0.558 1.382-0.93 2.233-0.93zM11.482 10.817c0.851 0 1.542 0.691 1.542 1.542 0 0.877-0.691 1.568-1.542 1.568-0.877 0-1.568-0.691-1.568-1.568 0-0.851 0.691-1.542 1.568-1.542zM14.618 8.611h-4.306c-0.585 0-1.116 0.239-1.488 0.611-0.399 0.399-0.638 0.93-0.638 1.515v10.525c0 0.585 0.239 1.116 0.638 1.515 0.372 0.372 0.904 0.611 1.488 0.611h4.306zM20.864 15.336c-0.851 0-1.568 0.718-1.568 1.568s0.718 1.568 1.568 1.568c0.851 0 1.568-0.718 1.568-1.568s-0.718-1.568-1.568-1.568z"></path>
</symbol>
<symbol id="icon-origin" viewBox="0 0 32 32">
<path fill="#db3c00" style="fill: var(--color8, #db3c00)" d="M32 16c0 8.837-7.163 16-16 16s-16-7.163-16-16c0-8.837 7.163-16 16-16s16 7.163 16 16z"></path>
<path fill="#fefefe" style="fill: var(--color2, #fefefe)" d="M24.208 16.016c0 0 0 0 0 0 0-0.016 0-0.016 0-0.016 0-0.032 0-0.064 0-0.112-0.064-4.471-3.705-8.080-8.208-8.080-0.319 0-0.655 0.016-0.974 0.064 0.080-1.134 0.958-2.331 0.958-2.331 0.096-0.192-0.128-0.383-0.303-0.271-1.501 0.878-7.872 3.609-7.872 10.731 0 0 0 0 0 0.016 0 4.519 3.673 8.192 8.192 8.192 0.335 0 0.671-0.016 0.99-0.064-0.096 1.134-0.958 2.331-0.958 2.331-0.096 0.192 0.128 0.383 0.303 0.271 1.501-0.878 7.872-3.513 7.872-10.731zM19.082 16.016c0 1.693-1.373 3.066-3.082 3.066-1.693 0-3.066-1.373-3.066-3.066 0-1.709 1.373-3.082 3.066-3.082 1.709 0 3.082 1.373 3.082 3.082z"></path>
</symbol>
<symbol id="icon-sony_p" viewBox="0 0 32 32">
<path fill="#000" style="fill: var(--color9, #000)" d="M31.983 15.995c0 8.834-7.161 15.995-15.995 15.995s-15.995-7.161-15.995-15.995c0-8.834 7.161-15.995 15.995-15.995s15.995 7.161 15.995 15.995z"></path>
<path fill="#fff" style="fill: var(--color10, #fff)" d="M13.716 8.578v13.888l2.988 0.914v-11.577c0-0.301 0.043-0.527 0.151-0.677 0.118-0.193 0.226-0.193 0.419-0.118 0.419 0.118 0.645 0.527 0.645 1.172v4.654c0.989 0.451 1.86 0.494 2.494 0.043 0.677-0.451 1.021-1.29 1.021-2.494 0-1.29-0.226-2.268-0.795-2.913-0.527-0.677-1.397-1.247-2.762-1.698-1.623-0.58-3.021-0.967-4.16-1.193zM12.813 16.984l-0.602 0.193-3.719 1.322-0.645 0.269c-0.989 0.419-1.473 0.828-1.473 1.247 0.043 0.57 0.677 0.989 1.86 1.29 1.516 0.419 3.031 0.494 4.579 0.269v-1.591l-0.602 0.151-0.677 0.269-0.193 0.075-0.14 0.043-0.054 0.021-0.032 0.011-0.043 0.011-0.065 0.011-0.15 0.021-0.258 0.043-0.097 0.011-0.086 0.011h-0.322l-0.097-0.011-0.086-0.011-0.097-0.021-0.086-0.021-0.107-0.032-0.097-0.032-0.097-0.043c-0.15-0.118-0.226-0.269-0.075-0.376 0.118-0.075 0.301-0.193 0.527-0.269l0.677-0.226 2.268-0.795c-0.011-0.021-0.011-1.838-0.011-1.838zM21.401 17.704c-0.269 0-0.57 0-0.828 0.043-0.989 0.043-2.010 0.193-3.064 0.527v1.86l2.118-0.72 1.096-0.376c0 0 0.419-0.118 0.72-0.193 0.151-0.043 0.301-0.043 0.419-0.043 0.151 0 0.269 0.043 0.376 0.043 0.075 0.043 0.151 0.043 0.151 0.043 0.269 0.043 0.419 0.151 0.451 0.269 0.043 0.151-0.151 0.269-0.527 0.419l-0.946 0.376-3.859 1.322v1.817l1.817-0.645 4.31-1.548 0.527-0.226c1.021-0.376 1.473-0.795 1.44-1.29-0.043-0.494-0.602-0.871-1.623-1.215-0.871-0.269-1.741-0.43-2.58-0.462z"></path>
</symbol>
<symbol id="icon-steam" viewBox="0 0 32 32">
<path fill="#000" style="fill: var(--color9, #000)" d="M32 16c0 8.837-7.163 16-16 16s-16-7.163-16-16c0-8.837 7.163-16 16-16s16 7.163 16 16z"></path>
<path fill="#fefefe" style="fill: var(--color2, #fefefe)" d="M0.48 19.94c-0.288-1.249-0.48-2.595-0.48-3.94 0-1.105 0.096-2.21 0.336-3.267 0.096 0.336 0.144 0.673 0.192 0.961l7.159 4.324c0.769-0.48 1.586-0.673 2.45-0.673h0.048l3.94-5.574c0-0.817 0.192-1.634 0.529-2.354s0.769-1.393 1.297-1.922c0.529-0.529 1.153-0.961 1.922-1.249 0.721-0.336 1.489-0.48 2.306-0.48 0.865 0 1.682 0.144 2.402 0.48s1.393 0.769 1.922 1.345c0.577 0.529 1.009 1.201 1.345 1.922 0.288 0.721 0.48 1.538 0.48 2.354 0 0.865-0.192 1.682-0.48 2.402-0.336 0.721-0.769 1.393-1.345 1.922-0.529 0.577-1.201 1.009-1.922 1.297-0.721 0.336-1.538 0.48-2.402 0.48v0 0l-5.333 4.132c0 0.625-0.144 1.249-0.384 1.826s-0.577 1.057-1.009 1.489c-0.432 0.432-0.961 0.769-1.489 1.009-0.577 0.24-1.201 0.384-1.826 0.384-1.249 0-2.306-0.384-3.171-1.153s-1.393-1.778-1.538-2.931zM10.138 18.547c0.961 0 1.778 0.336 2.45 1.057 0.625 0.673 0.961 1.489 0.961 2.45s-0.336 1.778-0.961 2.45c-0.673 0.673-1.489 1.009-2.45 1.009-0.865 0-1.634-0.288-2.258-0.817s-1.009-1.201-1.153-2.018l2.114 1.201c0.336 0.24 0.769 0.384 1.297 0.384 0.625 0 1.153-0.192 1.538-0.625 0.432-0.432 0.673-0.961 0.673-1.586 0-0.48-0.144-0.913-0.384-1.297-0.288-0.336-0.577-0.625-1.009-0.769l-2.066-1.153c0.384-0.192 0.769-0.288 1.249-0.288zM20.18 9.177c0.769 0 1.393 0.24 1.922 0.817 0.529 0.529 0.817 1.153 0.817 1.874 0 0.769-0.288 1.393-0.817 1.922s-1.153 0.769-1.922 0.769c-0.721 0-1.345-0.24-1.874-0.769s-0.769-1.153-0.769-1.922c0-0.721 0.24-1.345 0.769-1.874 0.529-0.577 1.153-0.817 1.874-0.817zM20.18 16c1.201 0 2.162-0.384 2.979-1.153 0.817-0.817 1.201-1.778 1.201-2.979 0-1.153-0.384-2.114-1.201-2.931s-1.778-1.201-2.979-1.201c-0.529 0-1.057 0.096-1.586 0.288-0.48 0.24-0.913 0.529-1.297 0.913s-0.673 0.817-0.913 1.345c-0.192 0.48-0.288 1.057-0.288 1.586 0 0.577 0.096 1.105 0.288 1.634 0.24 0.529 0.529 0.961 0.913 1.345 0.384 0.336 0.817 0.625 1.297 0.865 0.529 0.192 1.057 0.288 1.586 0.288z"></path>
</symbol>
<symbol id="icon-uplay" viewBox="0 0 32 32">
<path fill="#2e8be6" style="fill: var(--color11, #2e8be6)" d="M32 16c0 8.837-7.163 16-16 16s-16-7.163-16-16c0-8.837 7.163-16 16-16s16 7.163 16 16z"></path>
<path fill="#fefefe" style="fill: var(--color2, #fefefe)" d="M24.341 22.555h-12.007c-2.683 0-4.68-1.997-4.68-4.685v-8.425h4.691v8.24c0 0.618 0.507 1.125 1.125 1.125l5.356 0.037c0.623 0 1.12-0.507 1.12-1.125l-0.116-8.277h4.511z"></path>
</symbol>
<symbol id="icon-xbox" viewBox="0 0 32 32">
<path fill="#61a523" style="fill: var(--color12, #61a523)" d="M32 16c0 8.837-7.163 16-16 16s-16-7.163-16-16c0-8.837 7.163-16 16-16s16 7.163 16 16z"></path>
<path fill="#fefefe" style="fill: var(--color2, #fefefe)" d="M15.984 5.482c-1.97 0-3.845 0.556-5.386 1.509-0.111 0.032-0.27 0.175-0.429 0.302 1.382-1.096 4.608 1.112 5.545 1.78 0.159 0.111 0.365 0.111 0.524 0 0.937-0.667 4.163-2.876 5.561-1.78-0.159-0.127-0.334-0.27-0.445-0.302-1.541-0.953-3.416-1.509-5.37-1.509zM9.581 8.23c-0.731 0-1.271 0.588-1.271 0.588-1.732 1.875-2.828 4.401-2.828 7.182 0 5.799 4.703 10.518 10.502 10.518 3.051 0 5.831-1.335 7.754-3.432 0 0-0.238-1.366-1.652-3.384-1.573-2.383-4.783-5.386-5.799-6.308-0.175-0.159-0.445-0.159-0.62 0-0.763 0.715-2.765 2.685-3.21 3.194-1.049 1.112-3.956 4.576-4.147 6.546 0 0-0.636-1.557 0.779-5.116 0.874-2.145 3.607-5.339 4.941-6.721 0.175-0.191 0.175-0.477-0.016-0.651-0.445-0.413-1.462-1.128-2.383-1.684-0.636-0.413-1.366-0.683-2.050-0.731zM22.228 8.23c-0.286 0-2.224 0.604-4.274 2.415-0.191 0.175-0.191 0.477-0.016 0.667 0.731 0.763 2.765 2.717 3.972 4.64 1.509 2.479 2.415 4.433 1.875 7.134 1.684-1.875 2.733-4.338 2.733-7.086-0.048-2.749-1.096-5.259-2.828-7.134-0.048-0.048-0.095-0.095-0.143-0.143-0.365-0.397-0.906-0.493-1.319-0.493z"></path>
</symbol>
</defs>
</svg>
